<?xml version="1.0" encoding="UTF-8" standalone="no"?>
<!DOCTYPE svg PUBLIC "-//W3C//DTD SVG 1.1//EN" "http://www.w3.org/Graphics/SVG/1.1/DTD/svg11.dtd">
<svg width="75px" height="75px" version="1.1" xmlns="http://www.w3.org/2000/svg" xmlns:xlink="http://www.w3.org/1999/xlink" xml:space="preserve" xmlns:serif="http://www.serif.com/" style="fill-rule:evenodd;clip-rule:evenodd;stroke-linejoin:round;stroke-miterlimit:1.41421;">
    <g>
        <path d="M46.013,68.88L16.875,68.88L12.391,6.121L50.496,6.121L46.013,68.88Z" style="fill:rgb(189,201,255);fill-rule:nonzero;"/>
        <path d="M46.013,68.88L46.013,67.759L17.918,67.759L13.595,7.241L49.292,7.241L44.895,68.8L46.013,68.88L46.013,67.759L46.013,68.88L47.131,68.959L51.614,6.2C51.636,5.889 51.528,5.585 51.316,5.357C51.103,5.128 50.807,5 50.496,5L12.391,5C12.08,5 11.784,5.128 11.572,5.357C11.359,5.585 11.252,5.888 11.274,6.2L15.757,68.959C15.798,69.546 16.286,70 16.875,70L46.013,70C46.601,70 47.089,69.546 47.131,68.959L46.013,68.88Z" style="fill:rgb(96,111,179);fill-rule:nonzero;"/>
        <path d="M16.542,64.397L16.875,68.88L46.013,68.88L46.345,64.397L16.542,64.397Z" style="fill:rgb(223,223,223);fill-rule:nonzero;"/>
        <path d="M16.542,64.397L15.425,64.48L15.757,68.963C15.8,69.549 16.286,70 16.875,70L46.013,70C46.601,70 47.087,69.549 47.131,68.963L47.463,64.48C47.486,64.169 47.379,63.863 47.166,63.635C46.954,63.406 46.658,63.277 46.345,63.277L16.542,63.277C16.231,63.277 15.934,63.406 15.722,63.635C15.509,63.863 15.402,64.168 15.425,64.48L16.542,64.397L16.542,65.518L45.139,65.518L44.972,67.759L17.915,67.759L17.66,64.314L16.542,64.397L16.542,65.518L16.542,64.397Z" style="fill:rgb(96,111,179);fill-rule:nonzero;"/>
        <path d="M13.388,19.569L49.5,19.569L50.496,6.121L12.391,6.121L13.388,19.569Z" style="fill:rgb(234,185,36);fill-rule:nonzero;"/>
        <path d="M13.388,19.569L13.388,20.689L49.5,20.689C50.088,20.689 50.574,20.239 50.618,19.652L51.614,6.204C51.637,5.892 51.53,5.587 51.317,5.358C51.105,5.129 50.808,5 50.496,5L12.391,5C12.08,5 11.783,5.129 11.571,5.358C11.358,5.586 11.251,5.892 11.274,6.204L12.27,19.652C12.314,20.239 12.8,20.689 13.388,20.689L13.388,19.569L14.505,19.486L13.598,7.241L49.289,7.241L48.459,18.449L13.388,18.449L13.388,19.569L14.505,19.486L13.388,19.569Z" style="fill:rgb(96,111,179);fill-rule:nonzero;"/>
        <path d="M25.347,35.752C24.69,35.095 23.626,35.095 22.97,35.752C22.314,36.408 22.314,37.472 22.97,38.129C23.626,38.785 24.69,38.785 25.347,38.129C26.004,37.472 26.004,36.408 25.347,35.752Z" style="fill:rgb(84,89,110);fill-rule:nonzero;"/>
        <path d="M39.916,35.752C39.259,35.096 38.196,35.096 37.539,35.752C36.883,36.408 36.883,37.472 37.539,38.129C38.196,38.785 39.259,38.785 39.916,38.129C40.573,37.472 40.573,36.408 39.916,35.752Z" style="fill:rgb(84,89,110);fill-rule:nonzero;"/>
        <path d="M23.6,44.423C23.617,42.664 39.271,42.664 39.288,44.423L39.288,44.46C39.288,47.425 35.777,49.828 31.444,49.828C27.111,49.828 23.599,47.425 23.599,44.46L23.6,44.423Z" style="fill:rgb(84,89,110);fill-rule:nonzero;"/>
        <path d="M34.617,46.466C34.617,45.847 33.112,45.346 31.255,45.346C29.398,45.346 27.893,45.847 27.893,46.466C27.893,47.085 29.398,47.587 31.255,47.587C33.112,47.587 34.617,47.085 34.617,46.466Z" style="fill:rgb(255,146,125);fill-rule:nonzero;"/>
        <path d="M16.876,11.794L17.997,29.725C18.036,30.343 18.568,30.812 19.186,30.774C19.804,30.735 20.273,30.203 20.235,29.586L19.114,11.654C19.075,11.036 18.543,10.567 17.926,10.605C17.307,10.644 16.838,11.176 16.876,11.794" style="fill:rgb(235,235,235);fill-rule:nonzero;"/>
    </g>
    <g>
        <path d="M60.734,69.402L45.16,69.402L42.764,35.858L63.13,35.858L60.734,69.402Z" style="fill:rgb(222,228,255);fill-rule:nonzero;"/>
        <path d="M60.734,69.402L60.734,68.802L45.718,68.802L43.408,36.457L62.487,36.457L60.137,69.359L60.734,69.402L60.734,68.802L60.734,69.402L61.332,69.444L63.727,35.9C63.739,35.734 63.682,35.572 63.568,35.45C63.455,35.328 63.297,35.259 63.13,35.259L42.764,35.259C42.598,35.259 42.44,35.328 42.326,35.45C42.212,35.572 42.155,35.734 42.167,35.9L44.563,69.444C44.585,69.757 44.846,70 45.16,70L60.734,70C61.048,70 61.309,69.757 61.332,69.444L60.734,69.402Z" style="fill:rgb(96,111,179);fill-rule:nonzero;"/>
        <path d="M44.983,67.005L45.16,69.402L60.734,69.402L60.912,67.005L44.983,67.005Z" style="fill:rgb(223,223,223);fill-rule:nonzero;"/>
        <path d="M44.983,67.005L44.385,67.05L44.563,69.446C44.586,69.759 44.846,70 45.16,70L60.734,70C61.049,70 61.308,69.759 61.332,69.446L61.509,67.05C61.521,66.883 61.464,66.72 61.351,66.598C61.237,66.476 61.079,66.407 60.912,66.407L44.983,66.407C44.816,66.407 44.658,66.476 44.544,66.598C44.43,66.72 44.373,66.883 44.385,67.05L44.983,67.005L44.983,67.604L60.267,67.604L60.178,68.802L45.717,68.802L45.58,66.961L44.983,67.005L44.983,67.604L44.983,67.005Z" style="fill:rgb(96,111,179);fill-rule:nonzero;"/>
        <path d="M43.297,43.046L62.598,43.046L63.13,35.858L42.764,35.858L43.297,43.046Z" style="fill:rgb(255,242,189);fill-rule:nonzero;"/>
        <path d="M43.297,43.046L43.297,43.645L62.598,43.645C62.912,43.645 63.172,43.404 63.195,43.09L63.727,35.902C63.74,35.736 63.683,35.573 63.569,35.45C63.456,35.328 63.297,35.259 63.13,35.259L42.764,35.259C42.598,35.259 42.439,35.328 42.325,35.45C42.212,35.572 42.155,35.736 42.167,35.902L42.699,43.09C42.723,43.404 42.983,43.645 43.297,43.645L43.297,43.046L43.894,43.001L43.409,36.457L62.485,36.457L62.042,42.447L43.297,42.447L43.297,43.046L43.894,43.001L43.297,43.046Z" style="fill:rgb(96,111,179);fill-rule:nonzero;"/>
        <path d="M50.2,51.184C49.732,50.716 48.974,50.716 48.506,51.184C48.038,51.652 48.038,52.41 48.506,52.878C48.974,53.345 49.732,53.345 50.2,52.878C50.668,52.41 50.668,51.652 50.2,51.184Z" style="fill:rgb(84,89,110);fill-rule:nonzero;"/>
        <path d="M57.987,51.183C57.519,50.716 56.761,50.716 56.293,51.183C55.825,51.651 55.825,52.41 56.293,52.878C56.761,53.345 57.519,53.345 57.987,52.878C58.455,52.41 58.455,51.651 57.987,51.183Z" style="fill:rgb(84,89,110);fill-rule:nonzero;"/>
        <path d="M57.138,58.52C57.127,59.461 48.76,59.447 48.753,58.507L48.753,58.487C48.755,56.902 50.634,55.621 52.95,55.625C55.266,55.628 57.141,56.916 57.138,58.501L57.138,58.52Z" style="fill:rgb(84,89,110);fill-rule:nonzero;"/>
        <path d="M51.251,57.419C51.25,57.749 52.055,58.019 53.047,58.02C54.04,58.022 54.844,57.755 54.845,57.425C54.845,57.094 54.041,56.824 53.049,56.823C52.057,56.821 51.251,57.088 51.251,57.419Z" style="fill:rgb(255,146,125);fill-rule:nonzero;"/>
        <path d="M45.161,38.89L45.76,48.474C45.781,48.804 46.066,49.055 46.396,49.035C46.726,49.014 46.977,48.73 46.956,48.4L46.357,38.816C46.337,38.485 46.052,38.234 45.722,38.255C45.392,38.276 45.141,38.56 45.161,38.89" style="fill:rgb(239,239,239);fill-rule:nonzero;"/>
    </g>
</svg>
