<?xml version="1.0" encoding="UTF-8" standalone="no"?>
<!DOCTYPE svg PUBLIC "-//W3C//DTD SVG 1.1//EN" "http://www.w3.org/Graphics/SVG/1.1/DTD/svg11.dtd">
<svg width="100%" height="100%" viewBox="0 0 480 480" version="1.1" xmlns="http://www.w3.org/2000/svg" xmlns:xlink="http://www.w3.org/1999/xlink" xml:space="preserve" xmlns:serif="http://www.serif.com/" style="fill-rule:evenodd;clip-rule:evenodd;stroke-linecap:round;stroke-linejoin:round;stroke-miterlimit:1.5;">
    <path d="M376.025,307.138C375.932,300.206 378.048,293.422 382.063,287.771C435.354,214.96 424.938,113.639 357.943,53.193C290.951,-7.253 189.095,-7.229 122.127,53.248C55.163,113.721 44.79,215.05 98.116,287.837C102.1,293.437 104.197,300.159 104.107,307.033L104.107,408.014C104.123,416.497 107.486,424.632 113.465,430.65C124.518,441.457 141.6,443.12 154.528,434.649C163.467,428.924 168.654,418.852 168.127,408.252C167.943,391.056 181.405,376.805 198.586,376.004C207.537,375.953 216.133,379.511 222.429,385.873C228.729,392.239 232.197,400.871 232.052,409.822L232.052,438.617C231.771,455.435 244.222,469.76 260.918,471.826C269.901,472.709 278.837,469.756 285.527,463.695C292.213,457.637 296.033,449.033 296.04,440.008L296.04,364.022C296.005,353.438 304.254,344.674 314.818,344.065C320.477,343.967 325.933,346.178 329.932,350.181C333.932,354.184 336.134,359.644 336.033,365.303L336.033,388.017C335.974,398.617 344.231,407.404 354.811,408.014C360.478,408.111 365.937,405.897 369.941,401.886C373.94,397.871 376.139,392.403 376.025,386.736L376.025,307.138ZM240.051,328.029C160.534,328.029 96.078,263.568 96.078,184.056C96.078,104.539 160.534,40.082 240.051,40.082C319.563,40.082 384.024,104.539 384.024,184.056C384.024,263.568 319.563,328.029 240.051,328.029Z" style="fill:rgb(215,248,255);fill-rule:nonzero;"/>
    <g>
        <ellipse cx="234" cy="185" rx="151" ry="153" style="fill:none;stroke:rgb(215,248,255);stroke-width:39px;"/>
        <path d="M362.954,47.28C324.168,12.076 272.103,-4.733 220.055,1.152C154.742,8.248 98.183,49.655 71.692,109.769C64.356,126.411 59.634,143.788 57.465,161.34C51.799,207.187 63.548,254.235 91.629,292.555C94.597,296.792 96.156,301.858 96.078,307.033L96.078,408.014C96.085,418.641 100.307,428.826 107.818,436.344C121.424,449.752 142.518,451.92 158.57,441.558C169.97,434.407 176.649,421.683 176.063,408.236C175.895,395.325 186.002,384.608 198.906,384.018C205.186,383.796 211.283,386.155 215.774,390.552C221.047,395.579 224.034,402.538 224.054,409.822L224.054,438.617C223.827,459.539 239.383,477.282 260.156,479.793C261.43,479.91 262.691,479.969 263.956,479.969C274.572,479.993 284.761,475.794 292.279,468.295C299.797,460.801 304.027,450.623 304.039,440.008L304.039,364.022C304.039,360.839 305.293,357.789 307.534,355.527C309.6,353.442 312.365,352.192 315.298,352.024C318.407,351.919 321.426,353.075 323.672,355.223C326.449,357.84 328.027,361.479 328.034,365.295L328.034,388.017C328.046,395.438 330.983,402.558 336.209,407.83C341.048,412.665 347.492,415.555 354.322,415.958C361.844,416.399 369.21,413.677 374.631,408.447C380.61,402.804 384.004,394.954 384.024,386.736L384.024,307.138C383.942,301.909 385.516,296.788 388.519,292.508C444.317,216.35 433.261,110.292 362.954,47.28ZM375.608,283.045C370.569,290.059 367.914,298.503 368.027,307.138L368.027,386.736C368.011,390.548 366.437,394.184 363.664,396.801C361.403,398.937 358.384,400.086 355.275,400C352.35,399.832 349.593,398.594 347.527,396.52C345.285,394.259 344.027,391.2 344.031,388.017L344.031,365.295C344.012,357.078 340.614,349.232 334.639,343.592C329.206,338.39 321.86,335.672 314.346,336.082C307.511,336.48 301.059,339.37 296.216,344.209C290.99,349.482 288.054,356.601 288.042,364.022L288.042,440.008C288.042,446.792 285.175,453.259 280.145,457.809C275.115,462.359 268.393,464.57 261.644,463.89C249.069,462.195 239.773,451.326 240.051,438.641L240.051,409.845C240.012,398.199 235.231,387.072 226.811,379.027C219.629,372.02 210.006,368.076 199.968,368.021C199.359,368.021 198.754,368.021 198.145,368.06C176.668,369.068 159.839,386.889 160.066,408.389C160.55,416.126 156.871,423.53 150.411,427.811C140.644,434.423 127.576,433.263 119.128,425.034C114.617,420.515 112.082,414.395 112.075,408.014L112.075,307.033C112.184,298.456 109.544,290.071 104.537,283.107C53.652,213.628 63.56,116.916 127.478,59.196C191.396,1.476 288.616,1.453 352.561,59.145C416.51,116.834 426.461,213.538 375.608,283.045Z" style="fill:rgb(11,147,202);fill-rule:nonzero;stroke:rgb(215,248,255);stroke-width:1px;stroke-linecap:butt;stroke-miterlimit:1.41421;"/>
        <path id="path3684" d="M237.84,32.36C236.323,32.36 234.762,33.156 233.969,34.444L226.151,47.399C224.911,47.496 223.51,47.262 222.28,47.399L212.378,36.604C211.343,35.498 209.545,35.045 208.059,35.338C206.568,35.636 205.611,36.519 205.081,37.944L199.423,52.164C198.212,52.512 197.194,52.606 195.998,52.983L183.937,44.421C182.707,43.531 181.02,43.389 179.619,43.974C178.22,44.553 177.256,45.905 177.013,47.399L174.481,62.066C173.37,62.643 172.527,63.173 171.429,63.778L157.655,57.748C156.274,57.116 154.594,57.349 153.337,58.195C152.074,59.034 151.567,60.105 151.625,61.619L152.071,76.733C151.105,77.507 149.966,78.465 149.019,79.264L134.799,75.84C133.319,75.495 131.552,75.663 130.48,76.733C129.403,77.807 128.866,79.571 129.215,81.051L132.64,95.644C131.844,96.589 131.254,97.282 130.48,98.25L115.441,97.803C113.932,97.761 112.412,98.7 111.57,99.962C110.725,101.218 110.941,102.449 111.57,103.834L117.6,117.682C116.998,118.774 116.39,119.989 115.813,121.106L101.221,123.266C99.724,123.508 98.304,124.47 97.722,125.871C97.143,127.276 97.288,128.959 98.168,130.19L106.805,142.251C106.425,143.446 106.259,144.912 105.911,146.122L91.691,151.259C90.272,151.789 89.455,152.82 89.16,154.312C88.865,155.8 89.318,157.593 90.425,158.63L101.221,168.532C101.084,169.762 100.877,171.167 100.774,172.404L88.266,180.147C86.977,180.943 86.107,182.498 86.107,184.018C86.107,185.539 86.978,187.096 88.266,187.89L100.774,195.633C100.885,196.873 101.084,197.901 101.221,199.132L90.425,209.481C89.316,210.515 88.863,212.239 89.16,213.725C89.454,215.216 90.272,216.244 91.691,216.777L105.911,221.914C106.259,223.125 106.425,224.664 106.805,225.86L98.168,237.921C97.282,239.156 97.138,240.841 97.722,242.24C98.304,243.644 99.724,244.531 101.221,244.771L115.813,246.93C116.39,248.049 116.992,249.332 117.6,250.429L111.57,263.756C110.938,265.138 110.725,266.812 111.57,268.074C112.415,269.34 113.932,270.294 115.441,270.234L130.48,269.787C131.259,270.761 131.84,271.446 132.64,272.393L129.215,287.06C128.867,288.537 129.411,290.229 130.48,291.303C131.549,292.383 133.319,292.545 134.799,292.197L149.019,288.772C149.966,289.577 151.104,290.533 152.071,291.303L151.625,306.417C151.567,307.932 152.074,308.996 153.337,309.842C154.593,310.685 156.274,310.92 157.655,310.289L171.429,304.258C172.524,304.866 173.366,305.394 174.481,305.971L177.013,320.638C177.256,322.138 178.218,323.486 179.619,324.062C181.018,324.644 182.706,324.574 183.937,323.69L195.998,314.607C197.194,314.986 198.212,315.525 199.423,315.873L205.081,329.721C205.611,331.14 206.568,332.409 208.059,332.699C209.548,332.999 211.344,332.545 212.378,331.433L222.28,320.191C223.51,320.333 224.912,320.527 226.151,320.638L233.969,333.592C234.761,334.875 236.323,335.751 237.84,335.751C239.358,335.751 240.468,334.878 241.265,333.592L249.455,320.638C250.694,320.527 251.649,320.333 252.879,320.191L263.228,331.433C264.263,332.545 265.614,333 267.1,332.699C268.591,332.406 270.069,331.14 270.599,329.721L275.736,315.873C276.947,315.525 277.965,314.986 279.161,314.607L291.222,323.69C292.454,324.573 294.142,324.644 295.54,324.062C296.942,323.486 297.903,322.135 298.146,320.638L300.752,305.971C301.863,305.394 303.079,304.857 304.177,304.258L317.578,310.289C318.959,310.92 320.562,310.685 321.822,309.842C323.085,308.997 324.036,307.935 323.981,306.417L323.162,291.303C324.129,290.53 325.196,289.577 326.14,288.772L340.807,292.197C342.287,292.544 343.61,292.385 344.679,291.303C345.756,290.229 346.367,288.537 346.019,287.06L342.519,272.393C343.32,271.445 344.355,270.76 345.125,269.787L359.792,270.234C361.301,270.288 362.821,269.341 363.664,268.074C364.509,266.811 364.745,265.138 364.11,263.756L358.08,250.429C358.685,249.332 359.219,248.048 359.792,246.93L374.459,244.771C375.96,244.531 377.305,243.644 377.884,242.24C378.463,240.841 377.877,239.155 376.991,237.921L368.429,225.86C368.805,224.665 369.345,223.125 369.694,221.914L383.468,216.777C384.89,216.245 386.231,215.216 386.521,213.725C386.821,212.236 386.292,210.515 385.18,209.481L374.013,199.132C374.15,197.901 374.354,196.869 374.459,195.633L387.339,187.89C388.628,187.097 389.052,185.536 389.052,184.018C389.052,182.501 388.629,180.943 387.339,180.147L374.459,172.404C374.349,171.164 374.147,169.763 374.013,168.532L385.18,158.63C386.292,157.593 386.823,155.798 386.521,154.312C386.228,152.821 384.89,151.789 383.468,151.259L369.694,146.122C369.344,144.911 368.805,143.447 368.429,142.251L376.991,130.19C377.88,128.959 378.464,127.276 377.884,125.871C377.305,124.473 375.957,123.512 374.459,123.266L359.792,121.106C359.218,119.988 358.683,118.773 358.08,117.682L364.11,103.834C364.745,102.449 364.51,101.219 363.664,99.962C362.821,98.699 361.316,97.745 359.792,97.803L345.125,98.25C344.352,97.283 343.322,96.585 342.519,95.644L346.019,81.051C346.366,79.571 345.748,77.808 344.679,76.733C343.61,75.662 342.287,75.492 340.807,75.84L326.14,79.264C325.195,78.465 324.132,77.506 323.162,76.733L323.981,61.619C324.039,60.105 323.084,59.034 321.822,58.195C320.556,57.349 318.959,57.119 317.578,57.748L304.177,63.778C303.079,63.176 301.864,62.643 300.752,62.066L298.146,47.399C297.903,45.905 296.941,44.553 295.54,43.974C294.142,43.392 292.453,43.534 291.222,44.421L279.161,52.983C277.968,52.604 276.947,52.512 275.736,52.164L270.599,37.944C270.069,36.519 268.591,35.633 267.1,35.338C265.611,35.046 264.262,35.497 263.228,36.604L252.879,47.399C251.649,47.261 250.691,47.501 249.455,47.399L241.265,34.444C240.469,33.156 239.358,32.36 237.84,32.36ZM237.393,59.014C239.696,59.068 242.152,60.268 243.871,62.066C247.303,65.672 247.022,71.583 243.424,75.021C239.833,78.461 234.354,78.176 230.916,74.574C227.487,70.974 227.32,65.06 230.916,61.619C232.712,59.899 235.091,58.96 237.393,59.014ZM236.723,95.942C293.944,95.942 330.607,129.861 330.607,183.423C330.607,235.321 294.326,268.968 238.436,268.968C181.88,268.968 146.264,234.706 146.264,180.147C146.264,129.912 182.829,95.942 236.723,95.942ZM129.661,140.911C133.169,140.851 136.786,142.713 138.298,146.122C140.313,150.672 138.071,156.171 133.533,158.183C128.989,160.202 123.487,157.964 121.472,153.419C119.456,148.866 121.625,143.376 126.162,141.357C127.299,140.853 128.492,140.93 129.661,140.911ZM344.679,141.357C345.848,141.378 347.042,141.3 348.178,141.804C352.722,143.82 354.884,149.316 352.868,153.865C350.855,158.418 345.354,160.649 340.807,158.63C336.269,156.615 334.476,151.05 336.489,146.495C337.998,143.082 341.172,141.297 344.679,141.357ZM170.684,267.404C174.804,267.361 178.26,270.292 179.172,274.552C180.212,279.417 177.179,284.23 172.322,285.273C167.463,286.321 162.572,283.292 161.527,278.423C160.487,273.546 163.963,268.676 168.823,267.628C169.431,267.498 170.096,267.411 170.684,267.404ZM303.953,267.851C304.628,267.846 305.282,267.943 305.889,268.074C310.749,269.114 313.856,274.005 312.813,278.87C311.771,283.735 306.874,286.759 302.018,285.72C297.158,284.671 294.126,279.798 295.168,274.924C295.947,271.273 298.574,268.732 302.018,268.074C302.591,267.965 303.279,267.856 303.953,267.851Z" style="fill:rgb(11,147,202);fill-rule:nonzero;"/>
        <path d="M222.004,186.414C221.656,177.587 228.531,170.148 237.359,169.8C246.19,169.452 253.626,176.327 253.973,185.154C254.321,193.982 247.45,201.421 238.619,201.769C229.791,202.117 222.352,195.242 222.004,186.414Z" style="fill:rgb(215,248,255);fill-rule:nonzero;"/>
        <path d="M216.612,178.293C212.208,188.535 215.457,200.457 224.445,207.049C233.433,213.64 245.78,213.153 254.225,205.875C262.666,198.597 264.966,186.456 259.77,176.592L284.413,150.973C286.41,148.881 287.128,145.878 286.284,143.113C285.444,140.348 283.177,138.252 280.354,137.628C277.531,137.009 274.59,137.957 272.666,140.116L248.023,165.74C241.431,162.799 233.84,163.098 227.5,166.549L184.693,127.951C181.44,125.046 176.454,125.286 173.492,128.49C170.531,131.695 170.684,136.68 173.836,139.698L216.612,178.293ZM244.006,181.833C247.251,184.832 247.451,189.894 244.456,193.139C241.457,196.38 236.395,196.579 233.15,193.584C229.905,190.585 229.706,185.524 232.705,182.279C234.148,180.717 236.148,179.79 238.271,179.707C240.394,179.623 242.464,180.389 244.022,181.833L244.006,181.833Z" style="fill:rgb(11,147,202);fill-rule:nonzero;"/>
    </g>
</svg>
