<?xml version="1.0" encoding="UTF-8" standalone="no"?>
<!DOCTYPE svg PUBLIC "-//W3C//DTD SVG 1.1//EN" "http://www.w3.org/Graphics/SVG/1.1/DTD/svg11.dtd">
<svg width="75px" height="75px" version="1.1" xmlns="http://www.w3.org/2000/svg" xmlns:xlink="http://www.w3.org/1999/xlink" xml:space="preserve" xmlns:serif="http://www.serif.com/" style="fill-rule:evenodd;clip-rule:evenodd;stroke-linejoin:round;stroke-miterlimit:1.41421;">
    <path d="M13.387,33.618L16.561,31.637C18,33.2 19.72,34.411 21.584,35.236L20.75,38.869L26.458,40.193L27.3,36.551C29.338,36.637 31.414,36.297 33.401,35.525L35.377,38.7L40.349,35.591L38.361,32.42C39.92,30.977 41.144,29.254 41.964,27.386L45.595,28.226L46.918,22.509L43.288,21.669C43.365,19.628 43.02,17.547 42.255,15.566L45.436,13.591L42.318,8.618L39.151,10.599C37.701,9.043 35.993,7.833 34.125,6.998L34.965,3.363L29.25,2.047L28.408,5.685C26.372,5.606 24.291,5.946 22.309,6.711L20.325,3.536L15.369,6.643L17.348,9.816C15.79,11.255 14.568,12.977 13.742,14.849L10.106,14.008L8.779,19.721L12.414,20.56C12.346,22.608 12.679,24.678 13.447,26.666L10.274,28.643L13.387,33.618ZM22.269,12.195C27.212,9.115 33.705,10.61 36.783,15.549C39.867,20.474 38.361,26.977 33.432,30.052C28.506,33.134 22.012,31.63 18.923,26.699C15.844,21.775 17.348,15.275 22.269,12.195Z" style="fill:rgb(228,142,102);fill-rule:nonzero;stroke:rgb(96,111,179);stroke-width:1.5px;"/>
    <path d="M64.8,35.99L66.731,35.735L66.327,32.701L64.396,32.958C64.055,31.948 63.51,30.995 62.773,30.167L63.962,28.623L61.53,26.766L60.35,28.314C59.352,27.822 58.299,27.544 57.233,27.479L56.977,25.548L53.944,25.96L54.2,27.888C53.191,28.226 52.236,28.772 51.412,29.51L49.86,28.324L48.012,30.752L49.563,31.935C49.067,32.926 48.786,33.99 48.727,35.057L46.794,35.314L47.198,38.345L49.131,38.088C49.475,39.103 50.014,40.048 50.752,40.878L49.566,42.426L51.998,44.283L53.187,42.733C54.171,43.231 55.228,43.51 56.297,43.567L56.554,45.493L59.583,45.094L59.327,43.163C60.336,42.829 61.288,42.28 62.116,41.542L63.664,42.729L65.523,40.298L63.969,39.117C64.462,38.118 64.743,37.049 64.8,35.99ZM60.523,38.392C58.938,40.469 55.97,40.861 53.893,39.277C51.82,37.695 51.425,34.727 53.005,32.654C54.599,30.575 57.563,30.178 59.634,31.766C61.706,33.353 62.106,36.32 60.523,38.392Z" style="fill:rgb(234,185,36);fill-rule:nonzero;stroke:rgb(96,111,179);stroke-width:1.5px;"/>
    <path d="M47.615,52.036L41.665,49.556L39.23,43.591L45.176,37.681C42.208,37.263 39.083,38.15 36.791,40.426C33.656,43.537 33.082,48.218 34.986,51.943L18.451,68.335L18.456,68.343C18.451,68.347 18.44,68.343 18.438,68.351C17.968,68.819 18.547,70.155 19.722,71.326C20.899,72.508 22.236,73.084 22.705,72.615C22.705,72.615 22.705,72.61 22.707,72.608L39.233,56.22C42.96,58.148 47.633,57.607 50.769,54.495C53.06,52.211 53.966,49.094 53.57,46.123L47.615,52.036Z" style="fill:rgb(189,201,255);fill-rule:nonzero;stroke:rgb(96,111,179);stroke-width:1.5px;"/>
    <path d="M25.217,18.395C24.738,17.917 23.963,17.917 23.485,18.395C23.007,18.874 23.007,19.648 23.485,20.127C23.963,20.605 24.738,20.605 25.217,20.127C25.695,19.648 25.695,18.874 25.217,18.395Z" style="fill:rgb(84,89,110);fill-rule:nonzero;"/>
    <path d="M33.175,18.395C32.697,17.917 31.922,17.917 31.443,18.395C30.965,18.873 30.965,19.648 31.443,20.127C31.922,20.605 32.697,20.605 33.175,20.127C33.653,19.648 33.653,18.873 33.175,18.395Z" style="fill:rgb(84,89,110);fill-rule:nonzero;"/>
    <path d="M23.721,23.713C23.718,22.752 32.267,22.636 32.29,23.596L32.29,23.617C32.312,25.236 30.412,26.575 28.045,26.607C25.679,26.639 23.743,25.352 23.721,23.733L23.721,23.713Z" style="fill:rgb(84,89,110);fill-rule:nonzero;"/>
    <path d="M29.754,24.747C29.749,24.409 28.923,24.146 27.909,24.16C26.895,24.174 26.077,24.459 26.081,24.797C26.086,25.135 26.912,25.398 27.926,25.384C28.94,25.37 29.759,25.085 29.754,24.747Z" style="fill:rgb(255,146,125);fill-rule:nonzero;"/>
    <path d="M55.115,33.443C54.862,33.19 54.452,33.19 54.199,33.443C53.946,33.696 53.946,34.106 54.199,34.359C54.452,34.612 54.862,34.612 55.115,34.359C55.368,34.106 55.368,33.696 55.115,33.443Z" style="fill:rgb(84,89,110);fill-rule:nonzero;"/>
    <path d="M57.974,34.09C57.721,33.837 57.311,33.837 57.057,34.09C56.805,34.343 56.805,34.753 57.057,35.007C57.311,35.259 57.721,35.259 57.974,35.007C58.227,34.753 58.227,34.343 57.974,34.09Z" style="fill:rgb(84,89,110);fill-rule:nonzero;"/>
    <path d="M58.922,36.937C59.02,37.436 54.589,38.349 54.482,37.852L54.479,37.842C54.306,37.002 55.16,36.117 56.387,35.864C57.613,35.612 58.747,36.087 58.92,36.926L58.922,36.937Z" style="fill:rgb(84,89,110);fill-rule:nonzero;"/>
    <path d="M55.685,37.001C55.721,37.176 56.176,37.231 56.702,37.122C57.227,37.014 57.624,36.784 57.588,36.609C57.552,36.434 57.097,36.379 56.571,36.488C56.045,36.596 55.648,36.826 55.685,37.001Z" style="fill:rgb(255,146,125);fill-rule:nonzero;"/>
</svg>
